/* XPM */
static char * Klobslogo_RFID_xpm[] = {
"47 48 917 2",
"  	c None",
". 	c #E4E4E4",
"+ 	c #E0E0E0",
"@ 	c #DFDFDF",
"# 	c #DDDDDD",
"$ 	c #DCDCDC",
"% 	c #E2E2E2",
"& 	c #E6E6E6",
"* 	c #EEEEEE",
"= 	c #DBDBDB",
"- 	c #D8D8D8",
"; 	c #DADADA",
"> 	c #E3E3E3",
", 	c #D4D4D4",
"' 	c #939393",
") 	c #BCBCBC",
"! 	c #A2A2A2",
"~ 	c #CECECE",
"{ 	c #9D9D9D",
"] 	c #EBEBEB",
"^ 	c #E9E9E9",
"/ 	c #D2D2D2",
"( 	c #D7D7D7",
"_ 	c #E5E5E5",
": 	c #949494",
"< 	c #BBBBBB",
"[ 	c #999999",
"} 	c #D1D1D1",
"| 	c #9A9A9A",
"1 	c #ECECEC",
"2 	c #EDEDED",
"3 	c #D0D0D0",
"4 	c #E1E1E1",
"5 	c #C8C8C8",
"6 	c #A5A5A5",
"7 	c #B3B3B3",
"8 	c #C5C5C5",
"9 	c #B9B9B9",
"0 	c #EAEAEA",
"a 	c #EFEFEF",
"b 	c #CFCFCF",
"c 	c #C9C9C9",
"d 	c #6C6C6C",
"e 	c #A1A2A2",
"f 	c #6D6F71",
"g 	c #585C5E",
"h 	c #484C4E",
"i 	c #54595C",
"j 	c #696F72",
"k 	c #7B8083",
"l 	c #656A6D",
"m 	c #696D70",
"n 	c #626668",
"o 	c #7C7F80",
"p 	c #B9B9BA",
"q 	c #F0F0F0",
"r 	c #D6D6D6",
"s 	c #C6C6C6",
"t 	c #CBCBCB",
"u 	c #808080",
"v 	c #B6B6B6",
"w 	c #C3C3C3",
"x 	c #7A7A7A",
"y 	c #D3D3D3",
"z 	c #6B6E6F",
"A 	c #424648",
"B 	c #84898D",
"C 	c #C8CED2",
"D 	c #CAD1D4",
"E 	c #C9D0D4",
"F 	c #C8D0D3",
"G 	c #CBD1D5",
"H 	c #CBD2D6",
"I 	c #C9D1D4",
"J 	c #C8CFD3",
"K 	c #C1C8CB",
"L 	c #6F7579",
"M 	c #151A1E",
"N 	c #151A1C",
"O 	c #626465",
"P 	c #DADBDB",
"Q 	c #959595",
"R 	c #C1C1C1",
"S 	c #DEDEDE",
"T 	c #C0C0C0",
"U 	c #6A6A6A",
"V 	c #8F8F8F",
"W 	c #646667",
"X 	c #505557",
"Y 	c #9FA5A8",
"Z 	c #C7CED2",
"` 	c #C6CED2",
" .	c #CAD1D5",
"..	c #CDD4D7",
"+.	c #D1D7DA",
"@.	c #D5DBDD",
"#.	c #D9DFE1",
"$.	c #DEE2E5",
"%.	c #E2E6E8",
"&.	c #E1E5E7",
"*.	c #DADFE1",
"=.	c #BEC3C6",
"-.	c #20262A",
";.	c #040A0D",
">.	c #1C2124",
",.	c #7E8182",
"'.	c #BEBEBE",
").	c #F1F1F1",
"!.	c #999A9A",
"~.	c #585D5F",
"{.	c #B6BCBF",
"].	c #C5CCD0",
"^.	c #C0C9CD",
"/.	c #BEC7CB",
"(.	c #BFC9CD",
"_.	c #C1CACF",
":.	c #C5CDD2",
"<.	c #CDD4D8",
"[.	c #D1D8DC",
"}.	c #D7DCE0",
"|.	c #DCE1E4",
"1.	c #E1E5E8",
"2.	c #E5E9EB",
"3.	c #EAEDEE",
"4.	c #E4E7E8",
"5.	c #717679",
"6.	c #0B1216",
"7.	c #34383B",
"8.	c #ABACAC",
"9.	c #8D8E8E",
"0.	c #474C4F",
"a.	c #C4CACE",
"b.	c #C6CDD1",
"c.	c #88ACC9",
"d.	c #AEBECA",
"e.	c #B7C1C7",
"f.	c #B4BEC4",
"g.	c #B4BFC5",
"h.	c #B7C2C7",
"i.	c #BBC5CA",
"j.	c #BEC8CE",
"k.	c #C3CCD1",
"l.	c #C9D1D5",
"m.	c #CFD6DA",
"n.	c #D5DBDE",
"o.	c #DBE0E3",
"p.	c #E0E4E7",
"q.	c #E4E8EA",
"r.	c #E9ECEE",
"s.	c #E4E6E7",
"t.	c #B2B4B6",
"u.	c #505457",
"v.	c #040B0E",
"w.	c #050B0E",
"x.	c #828484",
"y.	c #F2F2F2",
"z.	c #D9D9D9",
"A.	c #969798",
"B.	c #52585B",
"C.	c #C4CCD0",
"D.	c #BEC6CB",
"E.	c #9BACB8",
"F.	c #5E98C6",
"G.	c #AEBAC1",
"H.	c #ABB8BE",
"I.	c #A8B6BD",
"J.	c #ABB8BF",
"K.	c #AFBCC3",
"L.	c #B3BFC6",
"M.	c #B9C4CA",
"N.	c #BEC9CE",
"O.	c #C5CED4",
"P.	c #CCD4D8",
"Q.	c #D2D9DD",
"R.	c #D8DEE1",
"S.	c #DEE3E6",
"T.	c #E3E7E9",
"U.	c #E7EAEC",
"V.	c #C8CBCC",
"W.	c #C1C3C4",
"X.	c #797D7F",
"Y.	c #070E12",
"Z.	c #080D10",
"`.	c #8B8D8F",
" +	c #AFB0B0",
".+	c #6D7376",
"++	c #C3CBCF",
"@+	c #BCC5CA",
"#+	c #B6C0C6",
"$+	c #AFBBC0",
"%+	c #6293BB",
"&+	c #8BA9BF",
"*+	c #A1B0B8",
"=+	c #9EADB6",
"-+	c #9FAEB7",
";+	c #A3B1BA",
">+	c #A8B6BE",
",+	c #ADBAC2",
"'+	c #B4C0C7",
")+	c #BAC6CC",
"!+	c #C1CBD1",
"~+	c #C8D1D6",
"{+	c #CFD7DB",
"]+	c #D6DCE0",
"^+	c #DBE1E3",
"/+	c #E0E5E7",
"(+	c #D8DCDE",
"_+	c #B3B6B8",
":+	c #B8BABC",
"<+	c #8B8F91",
"[+	c #10161A",
"}+	c #0D1215",
"|+	c #9E9FA0",
"1+	c #A8A8A8",
"2+	c #C5C6C6",
"3+	c #686D6F",
"4+	c #B5BFC5",
"5+	c #ADBAC0",
"6+	c #94A6AF",
"7+	c #4D8EC2",
"8+	c #99A9B2",
"9+	c #95A7B1",
"0+	c #92A4AE",
"a+	c #95A7B2",
"b+	c #889AA4",
"c+	c #61727B",
"d+	c #67767F",
"e+	c #98A6AE",
"f+	c #B6C2C9",
"g+	c #BDC8CE",
"h+	c #C4CED4",
"i+	c #CCD4D9",
"j+	c #D2DADD",
"k+	c #DDE2E5",
"l+	c #A9ADAF",
"m+	c #ABAEB0",
"n+	c #828688",
"o+	c #12181B",
"p+	c #B6B6B7",
"q+	c #6E6E6E",
"r+	c #7F7F7F",
"s+	c #A7A7A7",
"t+	c #3E4244",
"u+	c #BCC2C6",
"v+	c #AEBAC0",
"w+	c #A6B4BB",
"x+	c #A0AFB8",
"y+	c #9AABB4",
"z+	c #6690B0",
"A+	c #6B98B9",
"B+	c #8CA0AB",
"C+	c #899EA9",
"D+	c #8196A2",
"E+	c #2B414B",
"F+	c #2B404A",
"G+	c #394B55",
"H+	c #4A5B64",
"I+	c #9BAAB3",
"J+	c #B0BEC6",
"K+	c #B9C5CC",
"L+	c #C0CBD0",
"M+	c #C7D1D6",
"N+	c #CED6DA",
"O+	c #D4DBDF",
"P+	c #A3A9AC",
"Q+	c #9A9FA2",
"R+	c #9DA1A3",
"S+	c #9EA2A4",
"T+	c #5F6467",
"U+	c #1C2023",
"V+	c #979797",
"W+	c #CACACA",
"X+	c #AAAAAA",
"Y+	c #B7B7B7",
"Z+	c #9B9B9B",
"`+	c #88898A",
" @	c #7B8184",
".@	c #B7C1C6",
"+@	c #9FAFB7",
"@@	c #9AAAB3",
"#@	c #93A5AF",
"$@	c #899CA7",
"%@	c #4688C0",
"&@	c #819AA8",
"*@	c #8097A4",
"=@	c #6A8390",
"-@	c #132C39",
";@	c #203744",
">@	c #2D434F",
",@	c #394E5A",
"'@	c #798D97",
")@	c #A3B4BD",
"!@	c #ABBAC3",
"~@	c #B3C1C8",
"{@	c #BBC7CD",
"]@	c #C2CCD2",
"^@	c #C9D2D7",
"/@	c #9BA3A7",
"(@	c #8A9094",
"_@	c #8E9396",
":@	c #8F9496",
"<@	c #8F9395",
"[@	c #373D40",
"}@	c #76797A",
"|@	c #9C9C9C",
"1@	c #585C5F",
"2@	c #C1C9CE",
"3@	c #B8C2C7",
"4@	c #B0BCC2",
"5@	c #A8B5BD",
"6@	c #A0AFB7",
"7@	c #869BA8",
"8@	c #6689A2",
"9@	c #538CBA",
"0@	c #7891A0",
"a@	c #6E8998",
"b@	c #173442",
"c@	c #14303F",
"d@	c #203A48",
"e@	c #2D4753",
"f@	c #7A909D",
"g@	c #93A8B3",
"h@	c #9DAFBA",
"i@	c #A5B6BF",
"j@	c #AEBCC4",
"k@	c #B6C2CA",
"l@	c #8A9499",
"m@	c #778084",
"n@	c #7A8286",
"o@	c #7C8285",
"p@	c #7C8185",
"q@	c #6E7375",
"r@	c #080F13",
"s@	c #202528",
"t@	c #CECECF",
"u@	c #9B9D9E",
"v@	c #A2A8AB",
"w@	c #BDC6CA",
"x@	c #A3B1B9",
"y@	c #9BABB4",
"z@	c #94A5AF",
"A@	c #859BA7",
"B@	c #7E96A3",
"C@	c #78919F",
"D@	c #4485B9",
"E@	c #688CA1",
"F@	c #6C8A9A",
"G@	c #527081",
"H@	c #224152",
"I@	c #264556",
"J@	c #526E7E",
"K@	c #7994A3",
"L@	c #839BA9",
"M@	c #8CA3AF",
"N@	c #96AAB5",
"O@	c #9FB1BB",
"P@	c #A8B8C0",
"Q@	c #B1BEC6",
"R@	c #677379",
"S@	c #667076",
"T@	c #697277",
"U@	c #6A7276",
"V@	c #6A7174",
"W@	c #696E71",
"X@	c #31383B",
"Y@	c #858889",
"Z@	c #AEAEAE",
"`@	c #676B6D",
" #	c #AFBBC1",
".#	c #8DA1AC",
"+#	c #728E9C",
"@#	c #608196",
"##	c #4287BC",
"$#	c #638395",
"%#	c #618294",
"&#	c #5F8194",
"*#	c #688798",
"=#	c #718F9F",
"-#	c #7C96A5",
";#	c #879EAB",
">#	c #91A6B1",
",#	c #9AACB7",
"'#	c #95A5AE",
")#	c #4F5D65",
"!#	c #535F67",
"~#	c #566166",
"{#	c #576165",
"]#	c #586065",
"^#	c #585E62",
"/#	c #4F5558",
"(#	c #050C10",
"_#	c #2A2F31",
":#	c #D0D0D1",
"<#	c #5E6467",
"[#	c #A2B1B9",
"}#	c #91A4AE",
"|#	c #889DA9",
"1#	c #8198A5",
"2#	c #7992A0",
"3#	c #6A8899",
"4#	c #658596",
"5#	c #4280AD",
"6#	c #5282A1",
"7#	c #587D90",
"8#	c #567B90",
"9#	c #587D91",
"0#	c #5A7E91",
"a#	c #5F8193",
"b#	c #6B899B",
"c#	c #7592A0",
"d#	c #8099A7",
"e#	c #8CA1AE",
"f#	c #657984",
"g#	c #3D4E57",
"h#	c #404F58",
"i#	c #435157",
"j#	c #455056",
"k#	c #454F54",
"l#	c #454D52",
"m#	c #444A4E",
"n#	c #151B1F",
"o#	c #04090D",
"p#	c #A4A4A5",
"q#	c #686868",
"r#	c #5C5C5C",
"s#	c #5E5E5E",
"t#	c #6B6D6D",
"u#	c #8F9598",
"v#	c #BBC4C9",
"w#	c #B1BCC2",
"x#	c #A7B5BC",
"y#	c #9FAEB6",
"z#	c #849BA6",
"A#	c #7C94A2",
"B#	c #738E9D",
"C#	c #6C8A99",
"D#	c #5E8193",
"E#	c #54798D",
"F#	c #3984C0",
"G#	c #50788D",
"H#	c #4D768D",
"I#	c #4F778D",
"J#	c #52798E",
"K#	c #577C90",
"L#	c #5D8093",
"M#	c #658597",
"N#	c #718E9D",
"O#	c #708A98",
"P#	c #2A414D",
"Q#	c #2F404A",
"R#	c #314049",
"S#	c #334147",
"T#	c #333E44",
"U#	c #333D42",
"V#	c #31393D",
"W#	c #1D2427",
"X#	c #040A0E",
"Y#	c #66696A",
"Z#	c #636363",
"`#	c #5D5D5D",
" $	c #626566",
".$	c #C2CACE",
"+$	c #A5B3BA",
"@$	c #6F8C9B",
"#$	c #678697",
"$$	c #608194",
"%$	c #587C90",
"&$	c #51788E",
"*$	c #3E769E",
"=$	c #3E7CA8",
"-$	c #457189",
";$	c #47728A",
">$	c #4B748C",
",$	c #51788D",
"'$	c #648495",
")$	c #2D4959",
"!$	c #162F3D",
"~$	c #19303D",
"{$	c #1C303B",
"]$	c #1F313A",
"^$	c #203038",
"/$	c #212E35",
"($	c #212C31",
"_$	c #1F282D",
":$	c #1A2226",
"<$	c #464A4C",
"[$	c #696969",
"}$	c #5F5F5F",
"|$	c #5E6264",
"1$	c #ADB9BF",
"2$	c #90A3AD",
"3$	c #879CA8",
"4$	c #7D95A3",
"5$	c #75909E",
"6$	c #5B7F92",
"7$	c #53798E",
"8$	c #4C758B",
"9$	c #447087",
"0$	c #3481BE",
"a$	c #3C6E8A",
"b$	c #3C6C86",
"c$	c #427089",
"d$	c #5C8396",
"e$	c #4B758C",
"f$	c #577B8F",
"g$	c #2A4B5D",
"h$	c #133142",
"i$	c #112C3C",
"j$	c #0F2835",
"k$	c #0E2430",
"l$	c #0C202A",
"m$	c #0E1F28",
"n$	c #0E1D24",
"o$	c #0E1B20",
"p$	c #0D171C",
"q$	c #0A1318",
"r$	c #040B0F",
"s$	c #262A2D",
"t$	c #6D6D6D",
"u$	c #797979",
"v$	c #6F6F6F",
"w$	c #8E8E8E",
"x$	c #696D6F",
"y$	c #BEC7CC",
"z$	c #98A9B2",
"A$	c #8EA2AC",
"B$	c #728E9D",
"C$	c #698898",
"D$	c #50778D",
"E$	c #49758D",
"F$	c #346C90",
"G$	c #418BC6",
"H$	c #538AAD",
"I$	c #98AEBA",
"J$	c #4F788E",
"K$	c #46728A",
"L$	c #426A80",
"M$	c #24495D",
"N$	c #16374A",
"O$	c #143344",
"P$	c #122E3D",
"Q$	c #102937",
"R$	c #0E2531",
"S$	c #0C202B",
"T$	c #0B1C26",
"U$	c #091821",
"V$	c #08151C",
"W$	c #071117",
"X$	c #060E13",
"Y$	c #040C0F",
"Z$	c #CCCCCC",
"`$	c #B5B5B5",
" %	c #B4B4B4",
".%	c #727272",
"+%	c #929292",
"@%	c #7B7B7B",
"#%	c #616669",
"$%	c #AAB7BE",
"%%	c #97A8B1",
"&%	c #7B94A2",
"*%	c #4F798E",
"=%	c #CCD5DA",
"-%	c #C7D4DB",
";%	c #E9EAEB",
">%	c #739CBA",
",%	c #31617C",
"'%	c #26536B",
")%	c #1B445A",
"!%	c #183E53",
"~%	c #16394B",
"{%	c #122E3E",
"]%	c #102A37",
"^%	c #0E2532",
"/%	c #0D212C",
"(%	c #0B1D26",
"_%	c #091921",
":%	c #071218",
"<%	c #060F13",
"[%	c #04090C",
"}%	c #6B6B6B",
"|%	c #757575",
"1%	c #64696C",
"2%	c #718D9C",
"3%	c #3C6880",
"4%	c #2D5D77",
"5%	c #5181A0",
"6%	c #D1D9DF",
"7%	c #ADBCC3",
"8%	c #728C9A",
"9%	c #395C6F",
"0%	c #0B1D27",
"a%	c #070C0F",
"b%	c #BFBFC0",
"c%	c #9F9F9F",
"d%	c #A4A4A4",
"e%	c #65696B",
"f%	c #6A8898",
"g%	c #53788B",
"h%	c #2D556B",
"i%	c #1C475F",
"j%	c #214F68",
"k%	c #8FA3AF",
"l%	c #7196AF",
"m%	c #6899C1",
"n%	c #25638C",
"o%	c #3D6177",
"p%	c #738996",
"q%	c #ABB6BC",
"r%	c #C6CCCF",
"s%	c #97A4AB",
"t%	c #5C717B",
"u%	c #223C49",
"v%	c #040C10",
"w%	c #111619",
"x%	c #9E9E9E",
"y%	c #ACACAC",
"z%	c #606060",
"A%	c #616161",
"B%	c #64686A",
"C%	c #BFC8CC",
"D%	c #ACB8BF",
"E%	c #8FA2AD",
"F%	c #7D96A3",
"G%	c #748F9E",
"H%	c #6B8999",
"I%	c #4F6F81",
"J%	c #1D4154",
"K%	c #193F55",
"L%	c #1E465E",
"M%	c #8A9EA8",
"N%	c #385F75",
"O%	c #1F4F6A",
"P%	c #20506B",
"Q%	c #2F7EBC",
"R%	c #1D4B64",
"S%	c #1B455C",
"T%	c #194056",
"U%	c #1A3B4F",
"V%	c #445C68",
"W%	c #7D8A92",
"X%	c #B5BBBE",
"Y%	c #B8BDC0",
"Z%	c #828B91",
"`%	c #45545B",
" &	c #11212A",
".&	c #091820",
"+&	c #08151B",
"@&	c #050E13",
"#&	c #1A1E21",
"$&	c #E8E8E8",
"%&	c #BDBDBD",
"&&	c #4C4C4C",
"*&	c #626262",
"=&	c #636668",
"-&	c #CBD2D5",
";&	c #648090",
">&	c #1A3A4B",
",&	c #16384B",
"'&	c #1B3F53",
")&	c #8698A1",
"!&	c #35576B",
"~&	c #1C4860",
"{&	c #1D4A63",
"]&	c #245E88",
"^&	c #266592",
"/&	c #1A4157",
"(&	c #183D52",
"_&	c #16394C",
":&	c #143546",
"<&	c #133040",
"[&	c #112A38",
"}&	c #1A2F3B",
"|&	c #505D64",
"1&	c #899094",
"2&	c #BCBFC0",
"3&	c #A8ABAD",
"4&	c #575F63",
"5&	c #071116",
"6&	c #050E12",
"7&	c #313537",
"8&	c #ABABAB",
"9&	c #3A3A3A",
"0&	c #5C5E5F",
"a&	c #B8BEC1",
"b&	c #BAC4C9",
"c&	c #839AA6",
"d&	c #254150",
"e&	c #133141",
"f&	c #183848",
"g&	c #879399",
"h&	c #4F6470",
"i&	c #3C5867",
"j&	c #3D5969",
"k&	c #3D5B6B",
"l&	c #3D5A6B",
"m&	c #3F6075",
"n&	c #3B5665",
"o&	c #3B5461",
"p&	c #39505D",
"q&	c #384D59",
"r&	c #364B55",
"s&	c #354751",
"t&	c #35454E",
"u&	c #33424A",
"v&	c #323F46",
"w&	c #313C42",
"x&	c #424A4F",
"y&	c #505659",
"z&	c #2E3539",
"A&	c #2E3336",
"B&	c #2B2F32",
"C&	c #747677",
"D&	c #969696",
"E&	c #717171",
"F&	c #616262",
"G&	c #6D7275",
"H&	c #889DA8",
"I&	c #506774",
"J&	c #173241",
"K&	c #ACAEAF",
"L&	c #E8E9E9",
"M&	c #EFF0F0",
"N&	c #EEEFEF",
"O&	c #EDEEEE",
"P&	c #EDEDEE",
"Q&	c #AFAFAF",
"R&	c #454A4C",
"S&	c #A5B3BB",
"T&	c #9DADB5",
"U&	c #94A6B0",
"V&	c #2F4551",
"W&	c #112937",
"X&	c #868F93",
"Y&	c #FFFFFF",
"Z&	c #FEFEFE",
"`&	c #FDFDFD",
" *	c #FCFCFC",
".*	c #FBFBFB",
"+*	c #FAFAFA",
"@*	c #F9F9F9",
"#*	c #F8F8F8",
"$*	c #F7F7F7",
"%*	c #F6F6F6",
"&*	c #F5F5F5",
"**	c #F4F4F4",
"=*	c #F3F3F3",
"-*	c #4D4D4D",
";*	c #5E6062",
">*	c #A0A6A9",
",*	c #B3BEC4",
"'*	c #8EA0AA",
")*	c #102430",
"!*	c #162C36",
"~*	c #56636A",
"{*	c #FEFEFD",
"]*	c #CBBCA3",
"^*	c #9C7D4D",
"/*	c #BFAC8E",
"(*	c #F9F8F6",
"_*	c #888888",
":*	c #787878",
"<*	c #768690",
"[*	c #0C1F29",
"}*	c #0D212D",
"|*	c #46535B",
"1*	c #BEAA8C",
"2*	c #AD803E",
"3*	c #C8964A",
"4*	c #A07531",
"5*	c #A58A60",
"6*	c #A6A6A6",
"7*	c #B2B2B2",
"8*	c #909090",
"9*	c #B8B8B8",
"0*	c #BFBFBF",
"a*	c #7D7D7D",
"b*	c #5F6162",
"c*	c #A7ADB0",
"d*	c #798890",
"e*	c #0B1E28",
"f*	c #0C202D",
"g*	c #45545C",
"h*	c #987845",
"i*	c #CC994C",
"j*	c #D49E4C",
"k*	c #AB7A2D",
"l*	c #926F38",
"m*	c #F9F9F8",
"n*	c #838383",
"o*	c #B1B1B1",
"p*	c #989898",
"q*	c #868686",
"r*	c #858585",
"s*	c #2C2C2C",
"t*	c #878787",
"u*	c #54585B",
"v*	c #C2C9CC",
"w*	c #A5B3BC",
"x*	c #7B8E98",
"y*	c #091F2B",
"z*	c #0C232F",
"A*	c #44545D",
"B*	c #9B8052",
"C*	c #AB7D35",
"D*	c #AE7B2D",
"E*	c #9D6E26",
"F*	c #91713E",
"G*	c #767676",
"H*	c #7E7E7F",
"I*	c #6F7477",
"J*	c #C4CDD2",
"K*	c #B8C3CA",
"L*	c #A1B2BC",
"M*	c #879CA7",
"N*	c #0A2330",
"O*	c #0A2535",
"P*	c #445660",
"Q*	c #F3F3F0",
"R*	c #716F36",
"S*	c #735417",
"T*	c #825E20",
"U*	c #765517",
"V*	c #70692F",
"W*	c #ECECE8",
"X*	c #E7E7E7",
"Y*	c #919191",
"Z*	c #858789",
"`*	c #8C969D",
" =	c #B3C1C9",
".=	c #A6B8C3",
"+=	c #9CB2BD",
"@=	c #93ABB8",
"#=	c #284353",
"$=	c #0B2A3B",
"%=	c #445964",
"&=	c #7C804E",
"*=	c #79812C",
"==	c #707B0D",
"-=	c #6B6F0D",
";=	c #707C0E",
">=	c #737B28",
",=	c #747A46",
"'=	c #CDCDCD",
")=	c #494949",
"!=	c #7E7E7E",
"~=	c #898F94",
"{=	c #80919B",
"]=	c #A4B9C5",
"^=	c #99B1BF",
"/=	c #8FABBB",
"(=	c #537385",
"_=	c #0D2F43",
":=	c #465D6A",
"<=	c #70753C",
"[=	c #6A7417",
"}=	c #646F09",
"|=	c #657009",
"1=	c #6D771D",
"2=	c #7D8444",
"3=	c #6C7336",
"4=	c #677074",
"5=	c #536B79",
"6=	c #92AFBF",
"7=	c #8CACBE",
"8=	c #7FA3B7",
"9=	c #20495F",
"0=	c #466170",
"a=	c #6B713B",
"b=	c #707829",
"c=	c #677019",
"d=	c #666F18",
"e=	c #6C7326",
"f=	c #646A31",
"g=	c #EFEFEE",
"h=	c #D5D5D5",
"i=	c #838A8D",
"j=	c #557382",
"k=	c #7A9FB3",
"l=	c #7EA8BF",
"m=	c #6694AD",
"n=	c #4A6879",
"o=	c #E3E3DC",
"p=	c #7B7F4E",
"q=	c #777C47",
"r=	c #767B47",
"s=	c #7B804E",
"t=	c #CCCDBF",
"u=	c #A9A9A9",
"v=	c #979A9B",
"w=	c #768D9A",
"x=	c #5C89A2",
"y=	c #70A3C0",
"z=	c #7092A5",
"A=	c #646464",
"B=	c #777777",
"C=	c #A1A1A1",
"D=	c #7C7C7C",
"E=	c #80868A",
"F=	c #527588",
"G=	c #698CA0",
"H=	c #BABABA",
"I=	c #C7C7C7",
"J=	c #535353",
"K=	c #858686",
"L=	c #8D8D8D",
"M=	c #ADADAD",
"N=	c #313131",
"O=	c #747474",
"P=	c #818181",
"Q=	c #414141",
"R=	c #848484",
"S=	c #C4C4C4",
"T=	c #C2C2C2",
"U=	c #8C8C8C",
"V=	c #0D0D0D",
"W=	c #A3A3A3",
"X=	c #101010",
"                                      . + @ # $ # + % & *                                     ",
"                                = - ; > & , ' ) ! ~ { ] ] & % ^                               ",
"                            / ( % > > . _ & : < [ } | ] 1 2 2 * . >                           ",
"                        3 } 4 4 4 % > . . # 5 6 7 8 9 0 ] 1 2 * a a 0 .                       ",
"                      b c d - 4 4 @ e f g h i j k l m n o p 1 2 * a q r = ]                   ",
"                  s t u v w x y z A B C D E F G H I J K L M N O P * ] Q 1 * &                 ",
"                R S 4 T U V W X Y E Z `  ...+.@.#.$.%.&.*.=.-.;.>.,.'.~ q ).a @               ",
"              ) # 4 4 @ !.~.{.E ].^./.(._.:.E <.[.}.|.1.2.3.4.5.6.;.7.8.q ).).q S             ",
"            7 $ 4 4 4 9.0.a.b.c.d.e.f.g.h.i.j.k.l.m.n.o.p.q.r.s.t.u.v.w.x.q ).y.).+           ",
"            z.4 4 4 A.B.Z C.D.E.F.G.H.I.J.K.L.M.N.O.P.Q.R.S.T.U.V.W.X.Y.Z.`.q ).y.] #         ",
"          s 4 4 4  +.+E ++@+#+$+%+&+*+=+-+;+>+,+'+)+!+~+{+]+^+/+(+_+:+<+[+}+|+).y.y.@         ",
"        1+) 4 4 2+3+D ++@+4+5+I.6+7+8+9+0+a+b+c+d+e+f+g+h+i+j+R.k+l+l+m+n+Y.o+p+).).8 ;       ",
"        w q+r+s+t+u+C.@+4+v+w+x+y+z+A+B+C+D+E+F+G+H+I+J+K+L+M+N+O+P+Q+R+S+T+v.U+} V+W+#       ",
"      X+W+Y+Z+`+ @Z D..@G.w++@@@#@$@%@&@*@=@-@;@>@,@'@)@!@~@{@]@^@/@(@_@:@<@[@;.}@w |@s ,     ",
"      W+4 4 t 1@J 2@3@4@5@6@@@#@B+7@8@9@0@a@b@c@d@e@f@g@h@i@j@k@g+l@m@n@o@p@q@r@s@t@a y..     ",
"    u @ 4 4 u@v@b.w@f.H.x@y@z@B+A@B@C@D@E@F@G@H@I@J@K@L@M@N@O@P@Q@R@S@T@U@V@W@X@;.Y@).y.y.}   ",
"    Z@4 4 4 `@D 2@3@ #w+=+9+.#7@B@0@+#@###$#%#&#&#%#*#=#-#;#>#,#'#)#!#~#{#]#^#/#(#_#q ).y.-   ",
"    V v y :#<#Z D.4+H.[#@@}#|#1#2#+#3#4#5#6#7#8#8#9#0#a#b#c#d#e#f#g#h#i#j#k#l#m#n#o#p#).).%   ",
"    q#r#s#t#u#C.v#w#x#y#9+B+z#A#B#C#4#D#E#F#G#H#H#I#J#K#L#M#N#O#P#F+Q#R#S#T#U#V#W#X#Y#q ).q '.",
"  Z#`#`#s# $u+.$3@G.+$y@#@C+1#0@@$#$$$%$&$*$=$-$-$;$>$,$K#D#'$)$!$~${$]$^$/$($_$:$v.<$a q ).5 ",
"  [$r#`#}$|$ .^..@1$x@@@2$3$4$5$C#$#6$7$8$9$0$a$b$c$d$e$J#f$g$h$i$j$k$l$m$n$o$p$q$r$s$a q ).t ",
"  t$u$v$w$x$J y$4+H.*+z$A$A@A#B$C$%#%$D$;$E$F$G$H$I$J$K$L$M$N$O$P$Q$R$S$T$U$V$W$X$Y$Z.Z$`$ %W+",
"  .%+%6 @%#%J D.4+$%6@%%.#z#&%+#*#$$8#H#*%=%-%;%).>%,%'%)%!%~%O${%]%^%/%(%_%V$:%<%(#[%5 z.- W+",
"  .%}%}$|%1%J D.4+$%6@%%.#z#&%2%*#a#8#H#3%4%5%a a 6%7%8%9%!%~%O${%]%^%/%0%_%V$:%<%(#a%b%c%d%Z$",
"  [$+%! V e%J y$4+H.*+z$A$A@A#B$f%%#g%h%i%j%k%l%m%n%o%p%q%r%s%t%u%Q$R$S$T$_%V$:%<%v%w%< x%y%W+",
"  `#s#z%A%B% .C%#+D%[#8+E%3$F%G%H%I%J%K%L%M%N%O%P%Q%R%S%T%U%V%W%X%Y%Z%`% &.&+&W$@&r$#&$&2 . %&",
"  &&s#z%*&=&-&2@e.5++$y@0+C+*@0@;&>&,&'&)&!&~&{&{&]&^&/&(&_&:&<&[&}&|&1&2&3&4&5&6&r$7&1 2 * 8&",
"  9&q#z%*&0&a&C.b&4@x#=+9+B+c&C@d&e&f&g&h&i&j&k&k&l&m&n&o&p&q&r&s&t&u&v&w&x&y&z&A&B&C&] 1 1 D&",
"    E&A%*&F&G&Z w@f.H.*+8+2$H&I&[&J&K&L&M&M&M&M&M&M&M&M&M&M&a N&* * * O&P&2 1 1 1 0 R Q&~ z.  ",
"    }%A%Z#[$R& .^.e.G.S&T&U&B+V&W&X&N&Y&Y&Y&Y&Y&Y&Y&Y&Z&`& *.*+*@*#*$*%*&***=*y.).q $*c%w$'   ",
"    -*q+|@s+;*>*].@+,*$%[#@@'*)*!*~*&*Y&Y&{*]*^*/*(*`& *.*+*@*#*$*%*&*****=*y.).q a $*6 w$_*  ",
"      |%:*V V l E ^.e. #x#+@<*[*}*|*&*Y&Y&1*2*3*4*5* *.*%&c 6*b 7***8*9*0*t & a * 2 %*6 '     ",
"      U 8*a*+%b*c*b.w@#+v+S&d*e*f*g*&*Y&Y&h*i*j*k*l*m*@*c%V+n*o*r++ _*p*q*r*3 2 1 ] &*Q&w$    ",
"      s*.%6*t*}%u*v*++v#4@w*x*y*z*A*&*Y&Z&B*C*D*E*F*#*$*%*&***=*y.).q a * 2 1 ] 0 ^ **6*q#    ",
"        Z#.%G*x%H*I*J*K*!@L*M*N*O*P*&*`&Q*R*S*T*U*V*W*&***^ X*& & _ . > % 4 ^ 0 ^ $&**!       ",
"          @%t*Y*U Z*`* =.=+=@=#=$=%=** *&=*===-=;=>=,=*** 3 b ~ ~ '=Z$Z$t W+= $&X*& =*c%      ",
"          )=!=[$U d ~={=]=^=/=(=_=:=**+*<=[=}=|=1=2=3=y.a $ ; ; z.- ( r % $&X*& _ . y.X+      ",
"            r#U U }%t$4=5=6=7=8=9=0==*#*a=b=c=d=d=e=f=g=1 ( h=h=, y / / S X*& _ . > ).8&      ",
"              }%d }%t$v$i=j=k=l=m=n==*%*o=p=q=r=q=s=t=a * 2 1 ] 0 ^ $&X*& _ . > % 4 ).u=      ",
"                v$q+t$Q Q v=w=x=y=z=y.&***=*y.).q a * 2 1 ] 0 ^ $&X*& _ . > % 4 + @ q u=      ",
"                  A=B=C=8*8*D=E=F=G=y.q - s $ ; ) z.( , - r H=b s 5 I=~ b Y++ o*Z$'=a u=      ",
"                    J=a*| u$C=t*|%K=).^ v L=w '.u$'.)  %%&'.D=M=Z+! C=7*v u @ |%v 9*a u=      ",
"                      N=O=P={ P=O=q*q $&`$c / z.%&} b b b / H=c I=R 5 8 c Y+b 7 R 9*a u=      ",
"                          Q=:*@%O=R=q ] / r I=h=S=~ y '=T=W+T 5 0*9*, 9 8 s 8 v / Z$a 1+      ",
"                              9&d G*, %***=*=*y.y.).q q a a * * 2 1 1 1 1 1 1 1 1 2 ] U=      ",
"                                  V=A={ d%d%d%6 6 6 d%W=! c%C=W=d%s+1+1+1+1+1+1+u=s+L=        ",
"                                                X=                                            ",
"                                                                                              "};
