/* XPM */
static char * Klobslogo_QRCode_xpm[] = {
"47 48 889 2",
"  	c None",
". 	c #E4E4E4",
"+ 	c #E0E0E0",
"@ 	c #DFDFDF",
"# 	c #DDDDDD",
"$ 	c #DCDCDC",
"% 	c #E2E2E2",
"& 	c #E6E6E6",
"* 	c #EEEEEE",
"= 	c #DBDBDB",
"- 	c #D8D8D8",
"; 	c #DADADA",
"> 	c #E3E3E3",
", 	c #D4D4D4",
"' 	c #939393",
") 	c #BCBCBC",
"! 	c #A2A2A2",
"~ 	c #CECECE",
"{ 	c #9D9D9D",
"] 	c #EBEBEB",
"^ 	c #E9E9E9",
"/ 	c #D2D2D2",
"( 	c #D7D7D7",
"_ 	c #E5E5E5",
": 	c #949494",
"< 	c #BBBBBB",
"[ 	c #999999",
"} 	c #D1D1D1",
"| 	c #9A9A9A",
"1 	c #ECECEC",
"2 	c #EDEDED",
"3 	c #D0D0D0",
"4 	c #E1E1E1",
"5 	c #C8C8C8",
"6 	c #A5A5A5",
"7 	c #B3B3B3",
"8 	c #C5C5C5",
"9 	c #B9B9B9",
"0 	c #EAEAEA",
"a 	c #EFEFEF",
"b 	c #CFCFCF",
"c 	c #C9C9C9",
"d 	c #6C6C6C",
"e 	c #A1A2A2",
"f 	c #6D6F71",
"g 	c #585C5E",
"h 	c #484C4E",
"i 	c #54595C",
"j 	c #696F72",
"k 	c #7B8083",
"l 	c #656A6D",
"m 	c #696D70",
"n 	c #626668",
"o 	c #7C7F80",
"p 	c #B9B9BA",
"q 	c #F0F0F0",
"r 	c #D6D6D6",
"s 	c #C6C6C6",
"t 	c #CBCBCB",
"u 	c #808080",
"v 	c #B6B6B6",
"w 	c #C3C3C3",
"x 	c #7A7A7A",
"y 	c #D3D3D3",
"z 	c #6B6E6F",
"A 	c #424648",
"B 	c #84898D",
"C 	c #C8CED2",
"D 	c #CAD1D4",
"E 	c #C9D0D4",
"F 	c #C8D0D3",
"G 	c #CBD1D5",
"H 	c #CBD2D6",
"I 	c #C9D1D4",
"J 	c #C8CFD3",
"K 	c #C1C8CB",
"L 	c #6F7579",
"M 	c #151A1E",
"N 	c #151A1C",
"O 	c #626465",
"P 	c #DADBDB",
"Q 	c #959595",
"R 	c #C1C1C1",
"S 	c #DEDEDE",
"T 	c #C0C0C0",
"U 	c #6A6A6A",
"V 	c #8F8F8F",
"W 	c #646667",
"X 	c #505557",
"Y 	c #9FA5A8",
"Z 	c #C7CED2",
"` 	c #C6CED2",
" .	c #CAD1D5",
"..	c #CDD4D7",
"+.	c #D1D7DA",
"@.	c #D5DBDD",
"#.	c #D9DFE1",
"$.	c #DEE2E5",
"%.	c #E2E6E8",
"&.	c #E1E5E7",
"*.	c #DADFE1",
"=.	c #BEC3C6",
"-.	c #20262A",
";.	c #040A0D",
">.	c #1C2124",
",.	c #7E8182",
"'.	c #BEBEBE",
").	c #F1F1F1",
"!.	c #999A9A",
"~.	c #585D5F",
"{.	c #B6BCBF",
"].	c #C5CCD0",
"^.	c #C0C9CD",
"/.	c #BEC7CB",
"(.	c #BFC9CD",
"_.	c #C1CACF",
":.	c #C5CDD2",
"<.	c #CDD4D8",
"[.	c #D1D8DC",
"}.	c #D7DCE0",
"|.	c #DCE1E4",
"1.	c #E1E5E8",
"2.	c #E5E9EB",
"3.	c #EAEDEE",
"4.	c #E4E7E8",
"5.	c #717679",
"6.	c #0B1216",
"7.	c #34383B",
"8.	c #ABACAC",
"9.	c #8D8E8E",
"0.	c #474C4F",
"a.	c #C4CACE",
"b.	c #C6CDD1",
"c.	c #88ACC9",
"d.	c #AEBECA",
"e.	c #B7C1C7",
"f.	c #B4BEC4",
"g.	c #B4BFC5",
"h.	c #B7C2C7",
"i.	c #BBC5CA",
"j.	c #BEC8CE",
"k.	c #C3CCD1",
"l.	c #C9D1D5",
"m.	c #CFD6DA",
"n.	c #D5DBDE",
"o.	c #DBE0E3",
"p.	c #E0E4E7",
"q.	c #E4E8EA",
"r.	c #E9ECEE",
"s.	c #E4E6E7",
"t.	c #B2B4B6",
"u.	c #505457",
"v.	c #040B0E",
"w.	c #050B0E",
"x.	c #828484",
"y.	c #F2F2F2",
"z.	c #D9D9D9",
"A.	c #969798",
"B.	c #52585B",
"C.	c #C4CCD0",
"D.	c #BEC6CB",
"E.	c #9BACB8",
"F.	c #5E98C6",
"G.	c #AEBAC1",
"H.	c #ABB8BE",
"I.	c #A8B6BD",
"J.	c #ABB8BF",
"K.	c #AFBCC3",
"L.	c #B3BFC6",
"M.	c #B9C4CA",
"N.	c #BEC9CE",
"O.	c #C5CED4",
"P.	c #CCD4D8",
"Q.	c #D2D9DD",
"R.	c #D8DEE1",
"S.	c #DEE3E6",
"T.	c #E3E7E9",
"U.	c #E7EAEC",
"V.	c #C8CBCC",
"W.	c #C1C3C4",
"X.	c #797D7F",
"Y.	c #070E12",
"Z.	c #080D10",
"`.	c #8B8D8F",
" +	c #AFB0B0",
".+	c #6D7376",
"++	c #C3CBCF",
"@+	c #BCC5CA",
"#+	c #B6C0C6",
"$+	c #AFBBC0",
"%+	c #6293BB",
"&+	c #8BA9BF",
"*+	c #A1B0B8",
"=+	c #9EADB6",
"-+	c #9FAEB7",
";+	c #A3B1BA",
">+	c #A8B6BE",
",+	c #ADBAC2",
"'+	c #B4C0C7",
")+	c #BAC6CC",
"!+	c #C1CBD1",
"~+	c #C8D1D6",
"{+	c #CFD7DB",
"]+	c #D6DCE0",
"^+	c #DBE1E3",
"/+	c #E0E5E7",
"(+	c #D8DCDE",
"_+	c #B3B6B8",
":+	c #B8BABC",
"<+	c #8B8F91",
"[+	c #10161A",
"}+	c #0D1215",
"|+	c #9E9FA0",
"1+	c #A8A8A8",
"2+	c #C5C6C6",
"3+	c #686D6F",
"4+	c #B5BFC5",
"5+	c #ADBAC0",
"6+	c #94A6AF",
"7+	c #4D8EC2",
"8+	c #99A9B2",
"9+	c #95A7B1",
"0+	c #92A4AE",
"a+	c #95A7B2",
"b+	c #889AA4",
"c+	c #61727B",
"d+	c #67767F",
"e+	c #98A6AE",
"f+	c #B6C2C9",
"g+	c #BDC8CE",
"h+	c #C4CED4",
"i+	c #CCD4D9",
"j+	c #D2DADD",
"k+	c #DDE2E5",
"l+	c #A9ADAF",
"m+	c #ABAEB0",
"n+	c #828688",
"o+	c #12181B",
"p+	c #B6B6B7",
"q+	c #6E6E6E",
"r+	c #7F7F7F",
"s+	c #A7A7A7",
"t+	c #3E4244",
"u+	c #BCC2C6",
"v+	c #AEBAC0",
"w+	c #A6B4BB",
"x+	c #A0AFB8",
"y+	c #9AABB4",
"z+	c #6690B0",
"A+	c #6B98B9",
"B+	c #8CA0AB",
"C+	c #899EA9",
"D+	c #8196A2",
"E+	c #2B414B",
"F+	c #2B404A",
"G+	c #394B55",
"H+	c #4A5B64",
"I+	c #9BAAB3",
"J+	c #B0BEC6",
"K+	c #B9C5CC",
"L+	c #C0CBD0",
"M+	c #C7D1D6",
"N+	c #CED6DA",
"O+	c #D4DBDF",
"P+	c #A3A9AC",
"Q+	c #9A9FA2",
"R+	c #9DA1A3",
"S+	c #9EA2A4",
"T+	c #5F6467",
"U+	c #1C2023",
"V+	c #979797",
"W+	c #CACACA",
"X+	c #AAAAAA",
"Y+	c #B7B7B7",
"Z+	c #9B9B9B",
"`+	c #88898A",
" @	c #7B8184",
".@	c #B7C1C6",
"+@	c #9FAFB7",
"@@	c #9AAAB3",
"#@	c #93A5AF",
"$@	c #899CA7",
"%@	c #4688C0",
"&@	c #819AA8",
"*@	c #8097A4",
"=@	c #6A8390",
"-@	c #132C39",
";@	c #203744",
">@	c #2D434F",
",@	c #394E5A",
"'@	c #798D97",
")@	c #A3B4BD",
"!@	c #ABBAC3",
"~@	c #B3C1C8",
"{@	c #BBC7CD",
"]@	c #C2CCD2",
"^@	c #C9D2D7",
"/@	c #9BA3A7",
"(@	c #8A9094",
"_@	c #8E9396",
":@	c #8F9496",
"<@	c #8F9395",
"[@	c #373D40",
"}@	c #76797A",
"|@	c #9C9C9C",
"1@	c #585C5F",
"2@	c #C1C9CE",
"3@	c #B8C2C7",
"4@	c #B0BCC2",
"5@	c #A8B5BD",
"6@	c #A0AFB7",
"7@	c #869BA8",
"8@	c #6689A2",
"9@	c #538CBA",
"0@	c #7891A0",
"a@	c #6E8998",
"b@	c #173442",
"c@	c #14303F",
"d@	c #203A48",
"e@	c #2D4753",
"f@	c #7A909D",
"g@	c #93A8B3",
"h@	c #9DAFBA",
"i@	c #A5B6BF",
"j@	c #AEBCC4",
"k@	c #B6C2CA",
"l@	c #8A9499",
"m@	c #778084",
"n@	c #7A8286",
"o@	c #7C8285",
"p@	c #7C8185",
"q@	c #6E7375",
"r@	c #080F13",
"s@	c #202528",
"t@	c #CECECF",
"u@	c #9B9D9E",
"v@	c #A2A8AB",
"w@	c #BDC6CA",
"x@	c #A3B1B9",
"y@	c #9BABB4",
"z@	c #94A5AF",
"A@	c #859BA7",
"B@	c #7E96A3",
"C@	c #78919F",
"D@	c #4485B9",
"E@	c #688CA1",
"F@	c #6C8A9A",
"G@	c #527081",
"H@	c #224152",
"I@	c #264556",
"J@	c #526E7E",
"K@	c #7994A3",
"L@	c #839BA9",
"M@	c #8CA3AF",
"N@	c #96AAB5",
"O@	c #9FB1BB",
"P@	c #A8B8C0",
"Q@	c #B1BEC6",
"R@	c #677379",
"S@	c #667076",
"T@	c #697277",
"U@	c #6A7276",
"V@	c #6A7174",
"W@	c #696E71",
"X@	c #31383B",
"Y@	c #858889",
"Z@	c #AEAEAE",
"`@	c #676B6D",
" #	c #AFBBC1",
".#	c #8DA1AC",
"+#	c #728E9C",
"@#	c #608196",
"##	c #4287BC",
"$#	c #638395",
"%#	c #618294",
"&#	c #5F8194",
"*#	c #688798",
"=#	c #718F9F",
"-#	c #7C96A5",
";#	c #879EAB",
">#	c #91A6B1",
",#	c #9AACB7",
"'#	c #95A5AE",
")#	c #4F5D65",
"!#	c #535F67",
"~#	c #566166",
"{#	c #576165",
"]#	c #586065",
"^#	c #585E62",
"/#	c #4F5558",
"(#	c #050C10",
"_#	c #2A2F31",
":#	c #D0D0D1",
"<#	c #5E6467",
"[#	c #A2B1B9",
"}#	c #91A4AE",
"|#	c #889DA9",
"1#	c #8198A5",
"2#	c #7992A0",
"3#	c #6A8899",
"4#	c #658596",
"5#	c #4280AD",
"6#	c #5282A1",
"7#	c #587D90",
"8#	c #567B90",
"9#	c #587D91",
"0#	c #5A7E91",
"a#	c #5F8193",
"b#	c #6B899B",
"c#	c #7592A0",
"d#	c #8099A7",
"e#	c #8CA1AE",
"f#	c #657984",
"g#	c #3D4E57",
"h#	c #404F58",
"i#	c #435157",
"j#	c #455056",
"k#	c #454F54",
"l#	c #454D52",
"m#	c #444A4E",
"n#	c #151B1F",
"o#	c #04090D",
"p#	c #A4A4A5",
"q#	c #686868",
"r#	c #5C5C5C",
"s#	c #5E5E5E",
"t#	c #6B6D6D",
"u#	c #8F9598",
"v#	c #BBC4C9",
"w#	c #B1BCC2",
"x#	c #A7B5BC",
"y#	c #9FAEB6",
"z#	c #849BA6",
"A#	c #7C94A2",
"B#	c #738E9D",
"C#	c #6C8A99",
"D#	c #5E8193",
"E#	c #54798D",
"F#	c #3984C0",
"G#	c #50788D",
"H#	c #4D768D",
"I#	c #4F778D",
"J#	c #52798E",
"K#	c #577C90",
"L#	c #5D8093",
"M#	c #658597",
"N#	c #718E9D",
"O#	c #708A98",
"P#	c #2A414D",
"Q#	c #2F404A",
"R#	c #314049",
"S#	c #334147",
"T#	c #333E44",
"U#	c #333D42",
"V#	c #31393D",
"W#	c #1D2427",
"X#	c #040A0E",
"Y#	c #66696A",
"Z#	c #636363",
"`#	c #5D5D5D",
" $	c #626566",
".$	c #C2CACE",
"+$	c #A5B3BA",
"@$	c #6F8C9B",
"#$	c #678697",
"$$	c #608194",
"%$	c #587C90",
"&$	c #51788E",
"*$	c #3E769E",
"=$	c #3E7CA8",
"-$	c #457189",
";$	c #47728A",
">$	c #4B748C",
",$	c #51788D",
"'$	c #648495",
")$	c #2D4959",
"!$	c #162F3D",
"~$	c #19303D",
"{$	c #1C303B",
"]$	c #1F313A",
"^$	c #203038",
"/$	c #212E35",
"($	c #212C31",
"_$	c #1F282D",
":$	c #1A2226",
"<$	c #464A4C",
"[$	c #696969",
"}$	c #5F5F5F",
"|$	c #5E6264",
"1$	c #ADB9BF",
"2$	c #90A3AD",
"3$	c #879CA8",
"4$	c #7D95A3",
"5$	c #75909E",
"6$	c #5B7F92",
"7$	c #53798E",
"8$	c #4C758B",
"9$	c #447087",
"0$	c #3481BE",
"a$	c #3C6E8A",
"b$	c #3C6C86",
"c$	c #427089",
"d$	c #5C8396",
"e$	c #4B758C",
"f$	c #577B8F",
"g$	c #2A4B5D",
"h$	c #133142",
"i$	c #112C3C",
"j$	c #0F2835",
"k$	c #0E2430",
"l$	c #0C202A",
"m$	c #0E1F28",
"n$	c #0E1D24",
"o$	c #0E1B20",
"p$	c #0D171C",
"q$	c #0A1318",
"r$	c #040B0F",
"s$	c #262A2D",
"t$	c #6D6D6D",
"u$	c #797979",
"v$	c #6F6F6F",
"w$	c #8E8E8E",
"x$	c #696D6F",
"y$	c #BEC7CC",
"z$	c #98A9B2",
"A$	c #8EA2AC",
"B$	c #728E9D",
"C$	c #698898",
"D$	c #50778D",
"E$	c #49758D",
"F$	c #346C90",
"G$	c #418BC6",
"H$	c #538AAD",
"I$	c #98AEBA",
"J$	c #4F788E",
"K$	c #46728A",
"L$	c #426A80",
"M$	c #24495D",
"N$	c #16374A",
"O$	c #143344",
"P$	c #122E3D",
"Q$	c #102937",
"R$	c #0E2531",
"S$	c #0C202B",
"T$	c #0B1C26",
"U$	c #091821",
"V$	c #08151C",
"W$	c #071117",
"X$	c #060E13",
"Y$	c #040C0F",
"Z$	c #CCCCCC",
"`$	c #B5B5B5",
" %	c #B4B4B4",
".%	c #727272",
"+%	c #929292",
"@%	c #7B7B7B",
"#%	c #616669",
"$%	c #AAB7BE",
"%%	c #97A8B1",
"&%	c #7B94A2",
"*%	c #4F798E",
"=%	c #CCD5DA",
"-%	c #C7D4DB",
";%	c #E9EAEB",
">%	c #739CBA",
",%	c #31617C",
"'%	c #26536B",
")%	c #1B445A",
"!%	c #183E53",
"~%	c #16394B",
"{%	c #122E3E",
"]%	c #102A37",
"^%	c #0E2532",
"/%	c #0D212C",
"(%	c #0B1D26",
"_%	c #091921",
":%	c #071218",
"<%	c #060F13",
"[%	c #04090C",
"}%	c #6B6B6B",
"|%	c #757575",
"1%	c #64696C",
"2%	c #718D9C",
"3%	c #3C6880",
"4%	c #2D5D77",
"5%	c #5181A0",
"6%	c #D1D9DF",
"7%	c #ADBCC3",
"8%	c #728C9A",
"9%	c #395C6F",
"0%	c #0B1D27",
"a%	c #070C0F",
"b%	c #BFBFC0",
"c%	c #9F9F9F",
"d%	c #A4A4A4",
"e%	c #65696B",
"f%	c #6A8898",
"g%	c #53788B",
"h%	c #2D556B",
"i%	c #1C475F",
"j%	c #214F68",
"k%	c #8FA3AF",
"l%	c #7196AF",
"m%	c #6899C1",
"n%	c #25638C",
"o%	c #3D6177",
"p%	c #738996",
"q%	c #ABB6BC",
"r%	c #C6CCCF",
"s%	c #97A4AB",
"t%	c #5C717B",
"u%	c #223C49",
"v%	c #040C10",
"w%	c #111619",
"x%	c #9E9E9E",
"y%	c #ACACAC",
"z%	c #606060",
"A%	c #616161",
"B%	c #64686A",
"C%	c #BFC8CC",
"D%	c #ACB8BF",
"E%	c #8FA2AD",
"F%	c #7D96A3",
"G%	c #748F9E",
"H%	c #6B8999",
"I%	c #4F6F81",
"J%	c #1D4154",
"K%	c #193F55",
"L%	c #1E465E",
"M%	c #8A9EA8",
"N%	c #5F7E90",
"O%	c #658699",
"P%	c #668799",
"Q%	c #70A6D1",
"R%	c #648395",
"S%	c #637F8F",
"T%	c #617C8B",
"U%	c #627886",
"V%	c #7F8F97",
"W%	c #A6AFB4",
"X%	c #CCD0D2",
"Y%	c #CED2D4",
"Z%	c #A9AFB4",
"`%	c #7F8A8E",
" &	c #5C676D",
".&	c #566066",
"+&	c #555E63",
"@&	c #555C60",
"#&	c #535A5D",
"$&	c #53585A",
"%&	c #626567",
"&&	c #BDBDBD",
"*&	c #4C4C4C",
"=&	c #626262",
"-&	c #636668",
";&	c #CBD2D5",
">&	c #648090",
",&	c #1A3A4B",
"'&	c #16384B",
")&	c #1B3F53",
"!&	c #8698A1",
"~&	c #35576B",
"{&	c #AABBC4",
"]&	c #FFFFFF",
"^&	c #FBFBFB",
"/&	c #ABABAB",
"(&	c #3A3A3A",
"_&	c #5C5E5F",
":&	c #B8BEC1",
"<&	c #BAC4C9",
"[&	c #839AA6",
"}&	c #254150",
"|&	c #133141",
"1&	c #173748",
"2&	c #83939B",
"3&	c #335162",
"4&	c #194055",
"5&	c #AAB9C1",
"6&	c #969696",
"7&	c #717171",
"8&	c #616262",
"9&	c #6D7275",
"0&	c #889DA8",
"a&	c #506774",
"b&	c #112A38",
"c&	c #808E95",
"d&	c #304A59",
"e&	c #173B4F",
"f&	c #A9B7BE",
"g&	c #ADADAD",
"h&	c #AFAFAF",
"i&	c #454A4C",
"j&	c #A5B3BB",
"k&	c #9DADB5",
"l&	c #94A6B0",
"m&	c #2F4551",
"n&	c #112937",
"o&	c #7D898F",
"p&	c #2E4451",
"q&	c #143446",
"r&	c #153648",
"s&	c #A8B5BC",
"t&	c #A0A0A0",
"u&	c #898989",
"v&	c #7E7E7E",
"w&	c #A1A1A1",
"x&	c #E7E7E7",
"y&	c #4D4D4D",
"z&	c #5E6062",
"A&	c #A0A6A9",
"B&	c #B3BEC4",
"C&	c #8EA0AA",
"D&	c #102430",
"E&	c #162C36",
"F&	c #293E49",
"G&	c #112A39",
"H&	c #112D3C",
"I&	c #133040",
"J&	c #AAB6BC",
"K&	c #5B5B5B",
"L&	c #565656",
"M&	c #8D8D8D",
"N&	c #575757",
"O&	c #8C8C8C",
"P&	c #595959",
"Q&	c #5A5A5A",
"R&	c #B8B8B8",
"S&	c #888888",
"T&	c #787878",
"U&	c #768690",
"V&	c #0C1F29",
"W&	c #0D212D",
"X&	c #0F2834",
"Y&	c #102A38",
"Z&	c #102C3B",
"`&	c #112E3E",
" *	c #C2CDD3",
".*	c #C4C4C4",
"+*	c #4F4F4F",
"@*	c #4B4B4B",
"#*	c #646464",
"$*	c #676767",
"%*	c #505050",
"&*	c #555555",
"**	c #4E4E4E",
"=*	c #909090",
"-*	c #7D7D7D",
";*	c #5F6162",
">*	c #A7ADB0",
",*	c #798890",
"'*	c #0B1E28",
")*	c #0C202D",
"!*	c #0D2532",
"~*	c #0E2736",
"{*	c #0E2A3A",
"]*	c #0F2D3C",
"^*	c #173546",
"/*	c #C9D4DA",
"(*	c #A6A6A6",
"_*	c #2C2C2C",
":*	c #878787",
"<*	c #54585B",
"[*	c #C2C9CC",
"}*	c #A5B3BC",
"|*	c #7B8E98",
"1*	c #091F2B",
"2*	c #0C232F",
"3*	c #0B2634",
"4*	c #0D2938",
"5*	c #0E2B3D",
"6*	c #0E2E3F",
"7*	c #0F3041",
"8*	c #C2CED5",
"9*	c #767676",
"0*	c #7E7E7F",
"a*	c #6F7477",
"b*	c #C4CDD2",
"c*	c #B8C3CA",
"d*	c #A1B2BC",
"e*	c #879CA7",
"f*	c #0A2330",
"g*	c #0A2535",
"h*	c #0C2939",
"i*	c #0C2C3D",
"j*	c #0D2F41",
"k*	c #0E3245",
"l*	c #0E3346",
"m*	c #D5D5D5",
"n*	c #919191",
"o*	c #858789",
"p*	c #8C969D",
"q*	c #B3C1C9",
"r*	c #A6B8C3",
"s*	c #9CB2BD",
"t*	c #93ABB8",
"u*	c #284353",
"v*	c #0B2A3B",
"w*	c #0C2D3F",
"x*	c #0D3246",
"y*	c #0E3549",
"z*	c #0F374D",
"A*	c #0F384F",
"B*	c #A6B6BE",
"C*	c #494949",
"D*	c #898F94",
"E*	c #80919B",
"F*	c #A4B9C5",
"G*	c #99B1BF",
"H*	c #8FABBB",
"I*	c #537385",
"J*	c #0D2F43",
"K*	c #0E3449",
"L*	c #0E374E",
"M*	c #0F3A53",
"N*	c #103D56",
"O*	c #104059",
"P*	c #A6B8C2",
"Q*	c #989898",
"R*	c #7C7C7C",
"S*	c #C7C7C7",
"T*	c #FEFEFE",
"U*	c #677074",
"V*	c #536B79",
"W*	c #92AFBF",
"X*	c #8CACBE",
"Y*	c #7FA3B7",
"Z*	c #20495F",
"`*	c #0F3B53",
" =	c #103F58",
".=	c #11425D",
"+=	c #124663",
"@=	c #134867",
"#=	c #A7BCC7",
"$=	c #737373",
"%=	c #848484",
"&=	c #858585",
"*=	c #868686",
"==	c #838A8D",
"-=	c #557382",
";=	c #7A9FB3",
">=	c #7EA8BF",
",=	c #6694AD",
"'=	c #154661",
")=	c #124764",
"!=	c #144B6B",
"~=	c #144F70",
"{=	c #165275",
"]=	c #A8C0CD",
"^=	c #656565",
"/=	c #585858",
"(=	c #979A9B",
"_=	c #768D9A",
":=	c #5C89A2",
"<=	c #70A3C0",
"[=	c #538AA9",
"}=	c #1A5677",
"|=	c #165579",
"1=	c #175A80",
"2=	c #195F85",
"3=	c #A9C4D3",
"4=	c #484848",
"5=	c #777777",
"6=	c #80868A",
"7=	c #527588",
"8=	c #4780A1",
"9=	c #4C8EB2",
"0=	c #287097",
"a=	c #1B6590",
"b=	c #1D6B97",
"c=	c #ABC9DA",
"d=	c #666666",
"e=	c #707070",
"f=	c #535353",
"g=	c #757677",
"h=	c #5E7480",
"i=	c #3D6E89",
"j=	c #256D95",
"k=	c #2076A4",
"l=	c #ADCFE2",
"m=	c #F9F9F9",
"n=	c #313131",
"o=	c #747474",
"p=	c #818181",
"q=	c #CACDCE",
"r=	c #CDCDCD",
"s=	c #414141",
"t=	c #A9A9A9",
"u=	c #C2C2C2",
"v=	c #343434",
"                                      . + @ # $ # + % & *                                     ",
"                                = - ; > & , ' ) ! ~ { ] ] & % ^                               ",
"                            / ( % > > . _ & : < [ } | ] 1 2 2 * . >                           ",
"                        3 } 4 4 4 % > . . # 5 6 7 8 9 0 ] 1 2 * a a 0 .                       ",
"                      b c d - 4 4 @ e f g h i j k l m n o p 1 2 * a q r = ]                   ",
"                  s t u v w x y z A B C D E F G H I J K L M N O P * ] Q 1 * &                 ",
"                R S 4 T U V W X Y E Z `  ...+.@.#.$.%.&.*.=.-.;.>.,.'.~ q ).a @               ",
"              ) # 4 4 @ !.~.{.E ].^./.(._.:.E <.[.}.|.1.2.3.4.5.6.;.7.8.q ).).q S             ",
"            7 $ 4 4 4 9.0.a.b.c.d.e.f.g.h.i.j.k.l.m.n.o.p.q.r.s.t.u.v.w.x.q ).y.).+           ",
"            z.4 4 4 A.B.Z C.D.E.F.G.H.I.J.K.L.M.N.O.P.Q.R.S.T.U.V.W.X.Y.Z.`.q ).y.] #         ",
"          s 4 4 4  +.+E ++@+#+$+%+&+*+=+-+;+>+,+'+)+!+~+{+]+^+/+(+_+:+<+[+}+|+).y.y.@         ",
"        1+) 4 4 2+3+D ++@+4+5+I.6+7+8+9+0+a+b+c+d+e+f+g+h+i+j+R.k+l+l+m+n+Y.o+p+).).8 ;       ",
"        w q+r+s+t+u+C.@+4+v+w+x+y+z+A+B+C+D+E+F+G+H+I+J+K+L+M+N+O+P+Q+R+S+T+v.U+} V+W+#       ",
"      X+W+Y+Z+`+ @Z D..@G.w++@@@#@$@%@&@*@=@-@;@>@,@'@)@!@~@{@]@^@/@(@_@:@<@[@;.}@w |@s ,     ",
"      W+4 4 t 1@J 2@3@4@5@6@@@#@B+7@8@9@0@a@b@c@d@e@f@g@h@i@j@k@g+l@m@n@o@p@q@r@s@t@a y..     ",
"    u @ 4 4 u@v@b.w@f.H.x@y@z@B+A@B@C@D@E@F@G@H@I@J@K@L@M@N@O@P@Q@R@S@T@U@V@W@X@;.Y@).y.y.}   ",
"    Z@4 4 4 `@D 2@3@ #w+=+9+.#7@B@0@+#@###$#%#&#&#%#*#=#-#;#>#,#'#)#!#~#{#]#^#/#(#_#q ).y.-   ",
"    V v y :#<#Z D.4+H.[#@@}#|#1#2#+#3#4#5#6#7#8#8#9#0#a#b#c#d#e#f#g#h#i#j#k#l#m#n#o#p#).).%   ",
"    q#r#s#t#u#C.v#w#x#y#9+B+z#A#B#C#4#D#E#F#G#H#H#I#J#K#L#M#N#O#P#F+Q#R#S#T#U#V#W#X#Y#q ).q '.",
"  Z#`#`#s# $u+.$3@G.+$y@#@C+1#0@@$#$$$%$&$*$=$-$-$;$>$,$K#D#'$)$!$~${$]$^$/$($_$:$v.<$a q ).5 ",
"  [$r#`#}$|$ .^..@1$x@@@2$3$4$5$C#$#6$7$8$9$0$a$b$c$d$e$J#f$g$h$i$j$k$l$m$n$o$p$q$r$s$a q ).t ",
"  t$u$v$w$x$J y$4+H.*+z$A$A@A#B$C$%#%$D$;$E$F$G$H$I$J$K$L$M$N$O$P$Q$R$S$T$U$V$W$X$Y$Z.Z$`$ %W+",
"  .%+%6 @%#%J D.4+$%6@%%.#z#&%+#*#$$8#H#*%=%-%;%).>%,%'%)%!%~%O${%]%^%/%(%_%V$:%<%(#[%5 z.- W+",
"  .%}%}$|%1%J D.4+$%6@%%.#z#&%2%*#a#8#H#3%4%5%a a 6%7%8%9%!%~%O${%]%^%/%0%_%V$:%<%(#a%b%c%d%Z$",
"  [$+%! V e%J y$4+H.*+z$A$A@A#B$f%%#g%h%i%j%k%l%m%n%o%p%q%r%s%t%u%Q$R$S$T$_%V$:%<%v%w%< x%y%W+",
"  `#s#z%A%B% .C%#+D%[#8+E%3$F%G%H%I%J%K%L%M%N%O%P%Q%R%S%T%U%V%W%X%Y%Z%`% &.&+&@&#&$&%&* 2 . &&",
"  *&s#z%=&-&;&2@e.5++$y@0+C+*@0@>&,&'&)&!&~&{&]&]&]&]&]&]&]&]&]&]&]&]&]&]&]&]&]&]&]&]&^&2 * /&",
"  (&q#z%=&_&:&C.<&4@x#=+9+B+[&C@}&|&1&2&3&4&5&]&]&]&]&]&]&]&]&]&]&]&]&]&]&]&]&]&]&]&]&^&1 1 6&",
"    7&A%=&8&9&Z w@f.H.*+8+2$0&a&b&c@c&d&~%e&f&]&]&s g&h&Z@Z@y ]&]&]&]&4 h&g&Z@h&Y+]&]&a ~ z.  ",
"    }%A%Z#[$i& .^.e.G.j&k&l&B+m&n&o&p&h$q&r&s&]&]&.%Z+! t&u&w$]&]&X+v&h&@%c%w&w&}$]&]&x&w$'   ",
"    y&q+|@s+z&A&].@+B&$%[#@@C&D&E&F&G&H&I&h$J&]&]&v$t K&L&'.M&q+N&O&P&Z@w&s#Q&R&`#]&]&x&w$S&  ",
"      |%T&V V l E ^.e. #x#+@U&V&W&k$X&Y&Z&`& *]&]&7&.*+*@*) w$#*$*+*%*Z@w&&***Z@A%]&]&x&'     ",
"      U =*-*+%;*>*b.w@#+v+j&,*'*)*!*~*{*]*^*/*]&]&7&S 1+(*T w$#*$*x Q&Z@w&Z@s+S A%]&]&).w$    ",
"      _*.%(*:*}%<*[*++v#4@}*|*1*2*3*4*5*6*7*8*]&]&9*Q&Z#r#P&Q z%/&w$P&`$`#K&A%z%s#]&]&^ q#    ",
"        Z#.%9*x%0*a*b*c*!@d*e*f*g*h*i*j*k*l*f&]&]&< & ! t&w&t +%m*v&N&$ ! c%w&$ ]&]&]&&       ",
"          @%:*n*U o*p*q*r*s*t*u*v*w*x*y*z*A*B*]&]&7&7&h&r#/&M&v$:*]&r#Z#u g&Z@u q ]&]&1       ",
"          C*v&[$U d D*E*F*G*H*I*J*K*L*M*N*O*P*]&]&- y&[ A%7 Q*~ s+Z#R |%R*S*Y+t&t$]&]&T*      ",
"            r#U U }%t$U*V*W*X*Y*Z*`* =.=+=@=#=]&]&$=&*|@r#%=Z+&=*=Z+0 z.q#N&m*u&! ]&]&]&      ",
"              }%d }%t$v$==-=;=>=,='=)=!=~={=]=]&]&t  %v `$^ `$|%9*v$^=. d @*}$z%/=]&]&]&      ",
"                v$q+t$Q Q (=_=:=<=[=}=|=1=2=3=]&]&7&P&Z#r#P&=*/ 5 W+L&|@y&4=9*s P&]&]&]&      ",
"                  #*5=w&=*=*R*6=7=8=9=0=a=b=c=]&]&$== |@| T V d=e=U f=+*%*x +%`#*=]&]&]&      ",
"                    f=-*| u$w&:*|%g=h=i=j=k=l=]&]&q+s **4=&&O&z%7&+ N&#*d 8 $=3 m=]&]&]&      ",
"                      n=o=p={ p=o=9*5=u$x x q=]&]&d r=z%P&'.O&e=$=' r x&S*`$@*h&m*]&]&]&      ",
"                          s=T&@%o=|%5=T&u$@%} ]&]&$=w$6&' u V t=S 6&> x v$N&e=h&[ ]&]&]&      ",
"                              (&d -*u$5=u$x , ]&]&m*u=w u=u=@ } 2 w a w _ b x&^ ]&]&]&]&      ",
"                                    v=}$e=x b ]&]&]&]&]&]&]&]&]&]&]&]&]&]&]&]&]&]&]&]&]&      ",
"                                            , ]&]&]&]&]&]&]&]&]&]&]&]&]&]&]&]&]&]&]&]&]&      ",
"                                                                                              "};
